<?xml version="1.0" standalone="no"?>
<!DOCTYPE svg PUBLIC "-//W3C//DTD SVG 20010904//EN"
 "http://www.w3.org/TR/2001/REC-SVG-20010904/DTD/svg10.dtd">
<svg version="1.0" xmlns="http://www.w3.org/2000/svg"
 width="3432.000000pt" height="2289.000000pt" viewBox="0 0 3432.000000 2289.000000"
 preserveAspectRatio="xMidYMid meet">

<g transform="translate(0.000000,2289.000000) scale(0.100000,-0.100000)"
fill="#000000" stroke="none">
<path d="M16655 22874 c-27 -2 -131 -8 -230 -14 -362 -22 -869 -82 -1235 -146
-2026 -356 -3897 -1240 -5461 -2580 -501 -429 -994 -932 -1408 -1439 -748
-914 -1356 -1943 -1780 -3011 -22 -55 -44 -99 -49 -99 -6 0 -29 24 -52 53
l-42 52 -3154 0 -3154 0 0 -323 c0 -444 11 -518 101 -658 48 -74 298 -326 412
-414 l77 -60 -231 -3 c-197 -2 -230 -5 -225 -17 9 -24 473 -692 552 -795 40
-52 95 -122 123 -155 l50 -60 -121 -5 -121 -5 308 -380 c543 -670 681 -809
953 -956 34 -18 62 -40 62 -49 0 -72 25 -243 45 -311 96 -318 270 -494 687
-693 128 -62 146 -75 468 -332 468 -373 756 -595 868 -671 117 -78 331 -184
504 -248 101 -38 140 -58 190 -99 609 -501 883 -690 1183 -816 55 -23 103 -45
107 -49 4 -4 30 -88 57 -187 645 -2360 2065 -4481 4013 -5996 1704 -1324 3745
-2139 5883 -2347 736 -72 1500 -74 2220 -5 1706 162 3336 699 4804 1581 1539
924 2869 2233 3818 3758 584 939 1036 1970 1322 3019 23 82 42 150 44 151 1 0
36 14 77 30 146 56 377 173 496 252 155 103 429 311 669 507 105 86 206 161
225 167 91 30 227 86 350 145 220 106 328 184 1070 774 l385 306 159 77 c327
159 479 289 584 502 70 140 112 311 112 455 l0 45 73 39 c39 21 104 59 142 85
83 53 277 240 419 401 103 117 678 824 684 841 2 5 -48 9 -118 9 l-121 0 69
83 c108 129 151 188 420 577 l252 365 -235 3 -236 2 108 89 c137 112 308 281
368 365 109 153 124 257 117 809 l-2 197 -3153 0 -3154 0 -68 -86 c-37 -47
-71 -82 -75 -77 -4 4 -38 85 -75 178 -205 516 -505 1122 -798 1610 -1568 2611
-4092 4488 -7025 5225 -662 166 -1270 262 -2027 321 -132 10 -1172 21 -1280
13z m-6310 -7661 c70 -120 250 -385 317 -468 73 -89 340 -354 493 -489 55 -49
102 -92 103 -97 2 -6 -629 -8 -1575 -6 -1549 3 -1580 4 -1678 24 -198 41 -361
108 -486 199 -175 128 -531 466 -674 639 -64 77 -155 220 -155 243 0 7 27 12
73 14 39 2 853 4 1807 6 l1735 3 40 -68z m17273 58 l102 -1 -29 -57 c-66 -130
-223 -316 -433 -513 -341 -320 -489 -421 -713 -484 -200 -57 -135 -54 -1835
-62 -1069 -5 -1572 -4 -1569 3 2 6 27 29 54 53 216 184 448 414 569 565 47 57
220 316 297 443 l37 60 1708 -3 c940 -1 1755 -3 1812 -4z m-21321 -118 c178
-212 332 -377 498 -533 164 -154 229 -212 359 -319 l128 -106 -2768 -3 -2768
-2 -94 26 c-157 42 -426 166 -624 288 -181 110 -487 396 -507 473 -5 21 -13
95 -16 166 l-7 127 2850 0 2851 0 98 -117z m7807 103 c163 -32 393 -126 526
-216 242 -165 347 -400 320 -718 -9 -99 -26 -190 -40 -205 -23 -26 -644 -146
-1065 -206 -115 -17 -224 -33 -240 -36 -28 -6 -36 1 -140 119 l-110 125 -295
1 c-557 2 -1028 17 -1110 35 -167 37 -331 105 -425 178 -106 83 -398 352 -539
498 -232 240 -292 318 -311 407 l-7 32 1680 0 c1422 0 1692 -2 1756 -14z
m9621 -23 c-9 -52 -29 -88 -90 -163 -78 -96 -317 -347 -415 -436 -187 -170
-330 -293 -371 -321 -101 -70 -238 -123 -404 -158 -103 -22 -451 -34 -986 -35
l-406 0 -95 -107 c-53 -60 -105 -116 -116 -126 -19 -17 -30 -16 -328 38 -575
103 -977 181 -1010 195 -51 21 -72 338 -34 498 34 143 108 266 212 354 143
122 333 214 562 273 l91 24 1699 1 1698 0 -7 -37z m10172 -101 c-3 -75 -10
-149 -15 -163 -23 -59 -223 -258 -382 -379 -149 -113 -475 -283 -685 -357
l-110 -38 -2787 -3 c-1534 -1 -2788 0 -2788 4 0 3 15 17 32 32 398 330 655
581 926 904 l116 138 2849 0 2850 0 -6 -138z m-16332 -416 c412 -205 729 -338
1130 -471 572 -191 1114 -316 1760 -405 121 -16 239 -37 262 -46 80 -30 78
-12 81 -514 2 -327 -1 -513 -13 -700 -73 -1156 -180 -1807 -411 -2489 -489
-1447 -1360 -2579 -2636 -3428 -197 -131 -320 -195 -408 -214 -31 -7 -95 -9
-149 -7 -148 8 -222 42 -516 238 -643 430 -1205 957 -1646 1545 -494 658 -857
1429 -1078 2285 -138 537 -191 932 -246 1815 -14 226 -30 464 -35 530 -5 66
-15 281 -20 477 -10 307 -9 361 3 385 39 74 71 85 443 148 953 162 1240 226
1650 366 344 117 643 245 1074 457 151 74 295 141 320 148 28 9 72 12 115 9
66 -4 85 -12 320 -129z m-6795 -918 c58 -94 49 -161 -32 -240 -90 -88 -373
-209 -863 -368 -305 -99 -428 -136 -525 -157 -100 -21 -369 -34 -511 -25 -119
8 -131 10 -212 49 -94 45 -166 105 -202 167 -32 56 -84 206 -100 291 -16 85
-30 289 -21 304 5 8 349 11 1227 11 l1219 0 20 -32z m2574 -139 l186 -170 0
-207 c0 -480 59 -1297 131 -1802 30 -215 94 -574 115 -642 7 -23 -32 -24 -81
-4 l-35 15 0 171 c0 270 0 270 -248 270 -189 0 -218 6 -267 56 -34 36 -61 97
-109 240 -53 160 -74 174 -270 174 -182 1 -223 16 -267 102 -17 32 -19 60 -19
215 0 98 -5 196 -10 217 -14 62 -59 118 -120 149 -53 28 -59 29 -160 24 -109
-6 -183 2 -203 22 -8 8 -14 79 -17 212 -6 248 4 234 -168 241 -134 6 -199 27
-220 74 -8 15 -12 86 -12 187 0 89 -5 179 -10 199 -17 58 -61 93 -214 166 -91
44 -150 79 -164 97 -26 32 -56 129 -48 151 5 12 141 14 1015 14 l1009 -1 186
-170z m9924 148 c6 -28 -27 -119 -51 -146 -12 -13 -85 -54 -161 -92 -219 -108
-217 -105 -223 -358 -3 -102 -10 -194 -15 -204 -19 -36 -94 -59 -207 -64 -58
-2 -116 -6 -129 -9 -42 -9 -52 -55 -52 -251 0 -98 -4 -184 -8 -190 -13 -21
-107 -33 -200 -27 -55 4 -103 2 -130 -5 -44 -12 -121 -74 -145 -115 -8 -14
-14 -98 -17 -237 l-5 -216 -30 -49 c-44 -70 -64 -77 -250 -84 -160 -6 -203
-16 -232 -52 -6 -7 -27 -65 -48 -128 -39 -120 -76 -202 -104 -234 -9 -10 -33
-27 -53 -37 -32 -16 -60 -19 -207 -19 -93 0 -181 -4 -195 -10 -54 -20 -61 -48
-64 -248 l-4 -184 -35 -14 c-19 -9 -37 -13 -40 -11 -2 3 5 49 16 104 77 371
153 952 176 1333 3 58 8 125 10 150 12 132 45 878 45 1027 0 91 0 91 33 118
17 15 75 67 127 115 52 47 113 103 135 123 l40 37 1010 -3 c970 -2 1010 -3
1013 -20z m2411 13 l424 0 -7 -122 c-10 -171 -52 -343 -115 -467 -31 -59 -113
-128 -209 -174 l-87 -42 -275 0 c-323 0 -303 -3 -705 120 -417 128 -763 256
-918 338 -141 75 -213 172 -187 253 7 20 22 53 33 72 l21 35 800 -6 c441 -4
992 -7 1225 -7z m-17802 -152 c44 -79 110 -195 147 -258 66 -111 206 -371 206
-382 0 -6 -5765 0 -5940 6 -155 6 -322 48 -561 142 -179 70 -287 132 -378 219
-98 94 -284 317 -335 403 -6 9 674 12 3387 12 l3395 0 79 -142z m25513 136 c0
-12 -142 -196 -229 -297 -50 -58 -117 -126 -149 -152 -145 -116 -550 -277
-790 -314 -49 -8 -947 -11 -3052 -11 -1641 0 -2985 2 -2988 4 -6 7 124 251
231 433 52 87 116 200 143 250 l49 93 3393 0 c1865 0 3392 -3 3392 -6z
m-22199 -470 c45 -23 73 -92 72 -179 -2 -217 -175 -401 -606 -645 -158 -89
-269 -137 -434 -189 -531 -167 -892 -195 -1120 -87 -92 44 -149 97 -224 210
-123 183 -158 287 -115 335 33 36 83 43 230 32 348 -26 883 63 1311 219 158
57 356 140 507 211 82 39 172 79 200 89 66 23 139 25 179 4z m12201 -5 c33
-11 104 -42 157 -68 331 -166 767 -320 1091 -385 284 -57 415 -70 699 -69
l264 2 30 -30 c25 -25 29 -35 24 -65 -15 -90 -159 -329 -244 -404 -213 -189
-614 -184 -1249 15 -136 43 -314 123 -458 207 -188 109 -399 265 -453 336
-126 162 -151 369 -56 452 28 25 43 30 84 30 27 0 77 -9 111 -21z m-14938
-752 c43 -111 114 -285 157 -387 44 -102 79 -189 79 -192 0 -11 -5859 2 -5925
13 -203 34 -539 168 -716 285 -36 23 -121 101 -190 171 -120 124 -269 294
-269 307 0 3 1527 6 3393 6 l3392 0 79 -203z m24356 195 c0 -14 -197 -239
-295 -337 -49 -50 -112 -106 -138 -124 -165 -113 -455 -236 -677 -287 l-105
-24 -2937 0 c-1616 0 -2938 4 -2938 8 0 4 25 66 56 137 31 72 97 234 146 360
49 127 94 240 99 253 l9 22 3390 0 c1864 0 3390 -4 3390 -8z m-21184 -128 c49
-23 78 -89 71 -160 -10 -98 -58 -176 -187 -304 -155 -156 -319 -276 -625 -458
-397 -238 -585 -330 -810 -396 -227 -66 -483 -99 -606 -77 -157 29 -297 135
-377 288 -72 139 -78 215 -21 272 38 39 72 48 249 66 242 26 487 68 730 127
253 61 334 95 682 290 258 143 655 342 708 355 69 16 148 15 186 -3z m11325 4
c69 -16 381 -170 689 -340 392 -216 429 -233 678 -299 221 -58 543 -115 792
-139 168 -16 216 -34 244 -95 21 -43 20 -80 -3 -146 -68 -197 -239 -351 -421
-379 -83 -12 -347 10 -470 40 -282 68 -485 160 -895 403 -367 218 -512 323
-696 507 -109 108 -162 209 -163 305 -2 129 85 180 245 143z m-10762 -564
c100 -84 41 -252 -186 -530 -203 -247 -444 -442 -888 -715 -426 -262 -474
-287 -632 -342 -142 -50 -488 -97 -592 -82 -88 13 -157 68 -233 184 -78 120
-97 216 -57 298 33 68 80 89 213 97 378 23 685 158 1430 628 149 94 363 232
476 306 237 156 289 181 377 182 52 0 66 -4 92 -26z m10261 -9 c30 -15 113
-67 185 -115 183 -122 604 -391 770 -492 557 -337 812 -442 1155 -472 159 -13
194 -25 231 -78 31 -43 37 -130 14 -200 -20 -62 -87 -168 -141 -221 -83 -84
-143 -96 -369 -72 -353 37 -474 83 -887 341 -114 71 -254 158 -311 193 -261
159 -533 393 -703 604 -162 202 -223 314 -224 412 0 57 27 110 63 125 42 19
157 5 217 -25z m-13681 -433 c116 -186 260 -399 306 -450 26 -28 78 -75 116
-103 l69 -52 0 -80 0 -80 -677 7 c-373 3 -1292 11 -2043 17 -751 6 -1711 14
-2135 18 l-770 8 -123 36 c-161 48 -360 123 -523 197 -254 116 -380 202 -449
310 -33 51 -73 157 -84 223 l-7 37 3133 0 3133 0 54 -88z m23181 76 c-1 -41
-36 -151 -67 -210 -63 -120 -140 -184 -352 -292 -185 -94 -471 -206 -671 -262
l-95 -27 -710 -7 c-390 -4 -1488 -13 -2440 -19 -951 -6 -1895 -12 -2097 -14
l-368 -2 0 80 c0 80 0 81 31 99 18 11 66 51 107 90 58 55 106 118 211 277 75
114 148 228 163 253 l28 46 3130 0 c2497 0 3130 -3 3130 -12z m-19219 -245
c38 -32 59 -78 59 -128 0 -50 -42 -170 -85 -243 -62 -106 -265 -300 -647 -619
-572 -477 -820 -653 -1123 -799 -183 -88 -287 -119 -400 -119 -81 0 -97 3
-157 32 -131 62 -177 116 -208 246 -25 105 -25 150 1 205 23 47 62 76 119 92
192 50 254 69 375 117 171 67 424 193 689 342 304 172 363 214 759 549 369
311 427 350 534 351 42 1 57 -4 84 -26z m9134 3 c62 -29 169 -112 440 -341
346 -293 452 -371 715 -520 424 -242 788 -404 1034 -460 89 -21 139 -46 168
-87 20 -29 23 -44 22 -123 -2 -153 -47 -245 -155 -315 -161 -104 -329 -88
-634 59 -236 113 -435 248 -792 533 -605 485 -915 773 -986 918 -79 161 -82
267 -11 330 30 26 42 30 92 30 39 0 73 -8 107 -24z m-8587 -470 c124 -65 122
-236 -7 -503 -72 -147 -84 -166 -268 -397 -292 -365 -335 -415 -555 -632 -454
-450 -604 -572 -867 -702 -104 -52 -119 -57 -180 -57 -97 0 -180 43 -287 149
-126 126 -204 252 -204 331 0 64 35 97 198 190 149 85 288 176 562 369 463
326 564 415 1053 931 125 132 243 251 262 263 93 64 229 91 293 58z m8028 -3
c92 -31 146 -77 379 -324 484 -515 568 -589 1095 -959 245 -172 439 -297 558
-360 79 -42 148 -102 156 -136 25 -99 -189 -386 -354 -474 -55 -29 -75 -35
-131 -35 -62 0 -75 4 -190 62 -247 124 -374 223 -759 595 -301 292 -351 347
-576 632 -308 389 -299 376 -379 563 -58 133 -81 244 -66 314 14 63 44 107 85
125 43 18 123 17 182 -3z m-11937 -435 c247 -265 415 -470 461 -564 18 -38 34
-88 37 -121 l6 -56 -914 7 c-503 3 -1110 9 -1349 11 -239 2 -912 7 -1495 11
-1149 6 -1115 4 -1295 64 -228 75 -429 179 -620 323 -142 108 -465 360 -490
383 -12 12 399 14 2789 14 l2803 0 67 -72z m21327 63 c-7 -11 -316 -254 -492
-387 -72 -54 -166 -119 -208 -143 -171 -97 -461 -208 -601 -229 -42 -7 -391
-13 -865 -16 -437 -3 -1272 -9 -1855 -13 -583 -5 -1303 -8 -1600 -8 l-540 0 3
49 c6 117 129 289 459 644 l105 112 2799 0 c1626 0 2798 -4 2795 -9z m-16807
-235 c24 -81 67 -223 97 -314 l54 -166 -56 -101 c-138 -246 -726 -1079 -949
-1343 -144 -171 -384 -357 -605 -468 -84 -43 -104 -49 -172 -52 -140 -7 -299
62 -432 189 -115 109 -164 218 -131 295 24 58 43 74 245 208 102 68 235 166
295 218 160 137 369 358 567 600 480 585 780 929 883 1011 55 44 146 90 156
79 3 -4 25 -74 48 -156z m6772 116 c115 -73 367 -353 839 -932 243 -298 350
-418 516 -580 181 -176 291 -262 581 -448 126 -81 148 -147 91 -269 -28 -59
-126 -164 -201 -215 -176 -120 -337 -147 -477 -82 -277 130 -559 367 -771 649
-385 511 -849 1193 -849 1247 0 9 22 83 50 163 45 132 89 278 134 438 9 31 22
57 29 57 7 0 33 -13 58 -28z m-6451 -1020 c41 -97 122 -274 182 -392 l107
-214 -19 -43 c-44 -101 -171 -321 -278 -483 -371 -566 -599 -828 -800 -923
-63 -29 -65 -30 -195 -24 -188 7 -282 39 -416 141 -103 78 -138 162 -94 226 9
14 121 135 248 270 328 349 524 568 620 695 88 115 133 190 347 570 123 219
207 355 218 355 3 0 39 -80 80 -178z m6164 23 c29 -49 115 -200 191 -335 245
-435 274 -471 835 -1068 151 -162 286 -309 298 -327 32 -46 32 -94 -1 -143
-51 -78 -203 -175 -322 -207 -86 -22 -259 -31 -323 -15 -176 42 -418 300 -774
825 -139 204 -202 308 -292 478 l-68 128 136 272 c116 233 184 381 227 495 10
26 11 27 25 7 9 -11 39 -60 68 -110z m8695 49 c7 -7 -13 -24 -224 -183 -346
-261 -470 -328 -865 -466 -488 -171 -1366 -359 -1820 -390 -82 -5 -871 -17
-2084 -31 l-579 -7 8 59 c9 77 65 240 109 317 93 166 346 427 646 668 l55 44
2374 -3 c1306 -1 2377 -5 2380 -8z m-18848 -98 c266 -222 502 -474 579 -619
46 -84 90 -222 97 -300 l6 -68 -109 6 c-111 5 -303 8 -1694 25 -812 10 -844
11 -1060 36 -471 55 -1233 229 -1625 370 -308 112 -445 177 -633 304 -155 104
-445 323 -450 340 -3 7 820 10 2381 10 l2384 0 124 -104z m4561 -1041 c57 -88
160 -234 229 -323 68 -90 130 -174 138 -186 12 -20 7 -35 -68 -181 -114 -221
-234 -400 -340 -505 -94 -94 -337 -291 -386 -314 -88 -42 -347 -58 -498 -31
-109 19 -237 95 -273 161 -30 54 -15 77 148 234 313 302 549 620 804 1083 71
129 132 232 135 229 3 -4 53 -79 111 -167z m5059 -20 c273 -496 472 -769 786
-1081 168 -167 203 -210 203 -250 0 -48 -163 -163 -258 -183 -139 -29 -367
-22 -488 14 -63 18 -319 221 -439 346 -102 107 -212 272 -315 471 l-80 157
109 140 c105 134 264 358 346 488 22 34 43 59 46 55 4 -4 44 -74 90 -157z
m-4265 -953 c121 -120 265 -258 321 -306 l102 -88 -31 -57 c-178 -322 -274
-465 -372 -559 -104 -98 -165 -121 -356 -133 -159 -10 -261 -1 -356 31 -161
56 -284 172 -284 269 0 59 40 110 233 303 107 106 219 225 249 263 62 77 146
224 223 388 28 58 51 106 51 107 1 0 100 -98 220 -218z m3540 66 c143 -287
178 -334 454 -608 195 -195 230 -240 230 -299 0 -113 -157 -243 -345 -286 -89
-21 -326 -21 -424 -1 -146 31 -246 110 -366 291 -78 118 -245 405 -244 421 0
5 26 30 57 56 88 72 356 331 467 449 55 59 101 107 102 108 2 0 33 -59 69
-131z m-2753 -740 c78 -56 240 -167 360 -245 119 -79 217 -146 217 -149 0 -14
-47 -95 -83 -142 -83 -109 -231 -196 -387 -228 -119 -24 -282 -15 -468 25 -78
17 -163 41 -188 53 -49 22 -84 67 -84 106 0 34 32 91 83 148 42 46 195 253
330 447 33 48 65 87 69 87 5 0 73 -46 151 -102z m1860 70 c9 -23 330 -462 372
-510 78 -87 94 -154 50 -206 -34 -41 -83 -58 -275 -98 -356 -73 -588 -27 -773
154 -63 61 -132 165 -124 185 3 7 72 53 153 102 164 98 441 282 519 344 53 43
70 49 78 29z"/>
<path d="M16965 14591 c-883 -450 -1874 -751 -2935 -891 -91 -12 -179 -29
-197 -37 -33 -15 -52 -49 -55 -98 -3 -67 14 -467 32 -725 11 -151 26 -390 35
-530 40 -653 76 -991 146 -1350 345 -1769 1273 -3167 2761 -4160 254 -171 341
-210 463 -210 119 0 203 37 445 197 853 564 1552 1302 2039 2153 478 835 798
1865 911 2928 31 295 39 506 42 1142 3 545 2 588 -15 613 -28 44 -67 56 -259
82 -1058 145 -1979 426 -2901 886 -266 133 -252 133 -512 0z m318 -39 c60 -35
103 -124 116 -241 16 -146 -10 -274 -74 -357 -23 -30 -25 -41 -25 -148 l0
-116 35 0 35 0 0 -143 0 -143 118 -12 c334 -33 686 -140 999 -302 486 -252
895 -645 1168 -1124 528 -923 488 -2081 -101 -2968 -117 -176 -237 -320 -400
-478 -467 -453 -1035 -717 -1699 -790 -134 -15 -443 -12 -589 5 -519 61 -982
245 -1401 559 -146 110 -429 389 -537 531 -329 435 -511 886 -578 1437 -8 63
-11 188 -7 360 4 224 8 285 30 409 88 496 274 915 581 1304 95 120 328 355
446 449 224 179 533 354 792 449 224 82 511 148 703 162 150 10 135 -7 135
155 l0 140 35 0 35 0 0 120 c0 116 -1 121 -30 167 -80 126 -89 338 -19 480 53
111 142 147 232 95z"/>
<path d="M17146 14443 c-36 -56 -48 -118 -44 -235 2 -86 7 -111 28 -153 32
-63 69 -84 106 -60 45 29 68 97 72 216 6 167 -34 269 -107 269 -24 0 -36 -8
-55 -37z"/>
<path d="M16799 13140 c-760 -111 -1443 -564 -1844 -1225 -176 -289 -297 -623
-351 -965 -23 -145 -27 -594 -6 -735 46 -302 123 -549 253 -811 228 -461 592
-845 1044 -1105 602 -345 1341 -431 2019 -234 293 85 584 232 843 426 125 94
342 305 446 434 257 319 437 693 521 1086 74 347 76 741 5 1084 -98 475 -332
918 -670 1269 -388 404 -900 676 -1441 765 -68 11 -151 23 -185 27 l-63 7 0
-301 0 -301 38 -6 c213 -31 354 -67 512 -129 565 -224 1015 -718 1183 -1301
64 -219 71 -279 71 -560 0 -245 -1 -267 -27 -388 -71 -332 -212 -632 -415
-880 -33 -40 -109 -120 -171 -179 l-111 -108 0 -123 0 -122 -118 -118 -117
-117 -1013 0 -1014 0 -119 117 -119 116 0 112 c0 110 -1 113 -25 129 -46 30
-235 218 -298 296 -295 366 -446 792 -447 1260 0 323 58 584 195 867 235 488
648 856 1157 1032 121 41 314 85 431 97 l67 6 0 299 0 299 -52 -1 c-29 -1
-110 -9 -179 -19z"/>
<path d="M16920 12443 c-342 -56 -624 -173 -885 -368 -93 -69 -281 -254 -347
-340 -241 -319 -368 -650 -398 -1040 -34 -445 101 -905 372 -1267 63 -83 264
-298 280 -298 4 0 8 84 8 188 l0 187 114 114 114 113 -54 80 c-154 226 -227
463 -227 738 1 455 226 859 617 1104 136 86 284 141 489 181 l27 5 0 305 0
305 -42 -1 c-24 -1 -54 -4 -68 -6z"/>
<path d="M17372 12144 l3 -307 85 -17 c486 -100 873 -472 996 -957 89 -352 26
-724 -175 -1028 -25 -38 -49 -75 -53 -81 -5 -7 37 -50 107 -110 l114 -99 1
-195 1 -195 102 106 c265 274 430 603 498 995 31 177 31 444 0 619 -139 791
-731 1397 -1512 1550 -71 14 -138 25 -149 25 -20 0 -20 -5 -18 -306z"/>
<path d="M16975 11738 c-306 -57 -585 -236 -768 -493 -69 -97 -151 -271 -183
-390 -26 -93 -28 -114 -28 -305 -1 -194 0 -210 26 -303 49 -174 105 -289 211
-432 l48 -65 375 0 374 0 0 94 0 94 -72 34 c-356 163 -482 601 -266 923 66 99
144 168 250 218 l87 42 1 298 c0 163 -1 296 -2 296 -2 -1 -25 -5 -53 -11z"/>
<path d="M17370 11454 l0 -289 65 -23 c177 -64 328 -221 386 -402 30 -94 36
-240 14 -333 -51 -212 -200 -381 -399 -453 l-61 -22 -3 -91 -3 -91 371 0 370
0 56 76 c108 146 182 315 219 503 27 130 17 392 -19 526 -32 119 -105 276
-178 382 -67 99 -212 244 -304 305 -147 98 -336 177 -462 194 l-52 7 0 -289z"/>
<path d="M17370 10550 c0 -374 3 -520 11 -520 34 0 148 69 209 126 209 197
228 513 44 738 -47 58 -157 137 -223 161 l-41 14 0 -519z"/>
<path d="M16941 11013 c-163 -97 -262 -273 -262 -468 0 -152 51 -273 157 -379
49 -50 163 -126 188 -126 3 0 6 227 6 505 0 402 -3 505 -13 505 -7 0 -41 -17
-76 -37z"/>
<path d="M16822 9143 c-105 -213 -133 -262 -159 -278 -18 -11 -32 -22 -33 -25
0 -4 182 -4 200 0 3 1 -13 7 -35 14 -49 14 -55 36 -26 101 l20 45 105 0 106 0
25 -50 c38 -75 32 -100 -27 -100 -12 0 -18 -3 -15 -7 5 -4 257 -7 297 -3 3 1
-10 7 -28 15 -29 13 -45 40 -162 280 -71 146 -132 265 -135 265 -3 0 -63 -116
-133 -257z m118 -18 c22 -46 40 -89 40 -95 0 -13 -157 -14 -165 -1 -5 9 74
181 83 181 1 0 21 -38 42 -85z"/>
<path d="M17468 9380 c19 -4 39 -13 45 -19 9 -9 12 -82 12 -247 0 -222 -1
-236 -19 -250 -11 -8 -31 -14 -45 -14 -13 0 -22 -3 -18 -6 3 -4 74 -6 157 -6
83 0 154 2 157 6 4 3 -5 6 -18 6 -14 0 -35 7 -47 16 -22 15 -22 19 -22 243 0
251 1 257 60 271 23 5 -24 8 -130 8 -102 0 -152 -3 -132 -8z"/>
</g>
</svg>
